<mxfile host="app.diagrams.net" modified="2024-02-08T10:18:11.502Z" agent="Mozilla/5.0 (X11; Linux x86_64) AppleWebKit/537.36 (KHTML, like Gecko) Chrome/120.0.0.0 Safari/537.36" etag="kbXuPClYABCcRmB_pAtK" version="23.1.2" type="github">
  <diagram name="Page-1" id="xUp8vN68fmZpJWqiIA-D">
    <mxGraphModel dx="1719" dy="702" grid="0" gridSize="10" guides="1" tooltips="1" connect="1" arrows="1" fold="1" page="0" pageScale="1" pageWidth="827" pageHeight="1169" math="0" shadow="0">
      <root>
        <mxCell id="0" />
        <mxCell id="1" parent="0" />
        <mxCell id="5xigFDGkHEmPPeXIPXzV-10" style="edgeStyle=orthogonalEdgeStyle;rounded=0;orthogonalLoop=1;jettySize=auto;html=1;" edge="1" parent="1" source="5xigFDGkHEmPPeXIPXzV-1" target="5xigFDGkHEmPPeXIPXzV-2">
          <mxGeometry relative="1" as="geometry" />
        </mxCell>
        <mxCell id="5xigFDGkHEmPPeXIPXzV-1" value="&lt;font style=&quot;font-size: 48px;&quot;&gt;x&lt;/font&gt;" style="ellipse;whiteSpace=wrap;html=1;aspect=fixed;" vertex="1" parent="1">
          <mxGeometry x="284" y="129" width="80" height="80" as="geometry" />
        </mxCell>
        <mxCell id="5xigFDGkHEmPPeXIPXzV-11" style="edgeStyle=orthogonalEdgeStyle;rounded=0;orthogonalLoop=1;jettySize=auto;html=1;exitX=0;exitY=0.5;exitDx=0;exitDy=0;" edge="1" parent="1" source="5xigFDGkHEmPPeXIPXzV-2" target="5xigFDGkHEmPPeXIPXzV-5">
          <mxGeometry relative="1" as="geometry" />
        </mxCell>
        <mxCell id="5xigFDGkHEmPPeXIPXzV-12" style="edgeStyle=orthogonalEdgeStyle;rounded=0;orthogonalLoop=1;jettySize=auto;html=1;entryX=0.5;entryY=0;entryDx=0;entryDy=0;" edge="1" parent="1" source="5xigFDGkHEmPPeXIPXzV-2" target="5xigFDGkHEmPPeXIPXzV-4">
          <mxGeometry relative="1" as="geometry" />
        </mxCell>
        <mxCell id="5xigFDGkHEmPPeXIPXzV-13" style="edgeStyle=orthogonalEdgeStyle;rounded=0;orthogonalLoop=1;jettySize=auto;html=1;" edge="1" parent="1" source="5xigFDGkHEmPPeXIPXzV-2" target="5xigFDGkHEmPPeXIPXzV-3">
          <mxGeometry relative="1" as="geometry" />
        </mxCell>
        <mxCell id="5xigFDGkHEmPPeXIPXzV-2" value="" style="rounded=0;whiteSpace=wrap;html=1;" vertex="1" parent="1">
          <mxGeometry x="264" y="251" width="120" height="60" as="geometry" />
        </mxCell>
        <mxCell id="5xigFDGkHEmPPeXIPXzV-14" style="edgeStyle=orthogonalEdgeStyle;rounded=0;orthogonalLoop=1;jettySize=auto;html=1;entryX=1;entryY=0.5;entryDx=0;entryDy=0;" edge="1" parent="1" source="5xigFDGkHEmPPeXIPXzV-3" target="5xigFDGkHEmPPeXIPXzV-4">
          <mxGeometry relative="1" as="geometry" />
        </mxCell>
        <mxCell id="5xigFDGkHEmPPeXIPXzV-3" value="" style="rounded=0;whiteSpace=wrap;html=1;" vertex="1" parent="1">
          <mxGeometry x="468" y="345" width="120" height="60" as="geometry" />
        </mxCell>
        <mxCell id="5xigFDGkHEmPPeXIPXzV-20" style="edgeStyle=orthogonalEdgeStyle;rounded=0;orthogonalLoop=1;jettySize=auto;html=1;entryX=0.75;entryY=0;entryDx=0;entryDy=0;" edge="1" parent="1" source="5xigFDGkHEmPPeXIPXzV-4" target="5xigFDGkHEmPPeXIPXzV-7">
          <mxGeometry relative="1" as="geometry" />
        </mxCell>
        <mxCell id="5xigFDGkHEmPPeXIPXzV-23" style="edgeStyle=orthogonalEdgeStyle;rounded=0;orthogonalLoop=1;jettySize=auto;html=1;" edge="1" parent="1" source="5xigFDGkHEmPPeXIPXzV-4" target="5xigFDGkHEmPPeXIPXzV-22">
          <mxGeometry relative="1" as="geometry" />
        </mxCell>
        <mxCell id="5xigFDGkHEmPPeXIPXzV-4" value="" style="rounded=0;whiteSpace=wrap;html=1;" vertex="1" parent="1">
          <mxGeometry x="264" y="430" width="120" height="60" as="geometry" />
        </mxCell>
        <mxCell id="5xigFDGkHEmPPeXIPXzV-15" style="edgeStyle=orthogonalEdgeStyle;rounded=0;orthogonalLoop=1;jettySize=auto;html=1;exitX=0.5;exitY=1;exitDx=0;exitDy=0;" edge="1" parent="1" source="5xigFDGkHEmPPeXIPXzV-5" target="5xigFDGkHEmPPeXIPXzV-6">
          <mxGeometry relative="1" as="geometry" />
        </mxCell>
        <mxCell id="5xigFDGkHEmPPeXIPXzV-5" value="" style="rounded=0;whiteSpace=wrap;html=1;strokeColor=#007FFF;" vertex="1" parent="1">
          <mxGeometry x="-30" y="345" width="120" height="60" as="geometry" />
        </mxCell>
        <mxCell id="5xigFDGkHEmPPeXIPXzV-21" style="edgeStyle=orthogonalEdgeStyle;rounded=0;orthogonalLoop=1;jettySize=auto;html=1;exitX=1;exitY=0.5;exitDx=0;exitDy=0;entryX=0.25;entryY=0;entryDx=0;entryDy=0;" edge="1" parent="1" source="5xigFDGkHEmPPeXIPXzV-6" target="5xigFDGkHEmPPeXIPXzV-7">
          <mxGeometry relative="1" as="geometry" />
        </mxCell>
        <mxCell id="5xigFDGkHEmPPeXIPXzV-6" value="" style="rounded=0;whiteSpace=wrap;html=1;strokeColor=#007FFF;" vertex="1" parent="1">
          <mxGeometry x="-30" y="430" width="120" height="60" as="geometry" />
        </mxCell>
        <mxCell id="5xigFDGkHEmPPeXIPXzV-19" style="edgeStyle=orthogonalEdgeStyle;rounded=0;orthogonalLoop=1;jettySize=auto;html=1;entryX=0;entryY=0.5;entryDx=0;entryDy=0;" edge="1" parent="1" source="5xigFDGkHEmPPeXIPXzV-7" target="5xigFDGkHEmPPeXIPXzV-8">
          <mxGeometry relative="1" as="geometry" />
        </mxCell>
        <mxCell id="5xigFDGkHEmPPeXIPXzV-7" value="" style="rounded=0;whiteSpace=wrap;html=1;" vertex="1" parent="1">
          <mxGeometry x="85" y="568" width="120" height="60" as="geometry" />
        </mxCell>
        <mxCell id="5xigFDGkHEmPPeXIPXzV-18" style="edgeStyle=orthogonalEdgeStyle;rounded=0;orthogonalLoop=1;jettySize=auto;html=1;" edge="1" parent="1" source="5xigFDGkHEmPPeXIPXzV-8" target="5xigFDGkHEmPPeXIPXzV-9">
          <mxGeometry relative="1" as="geometry" />
        </mxCell>
        <mxCell id="5xigFDGkHEmPPeXIPXzV-8" value="" style="rounded=0;whiteSpace=wrap;html=1;" vertex="1" parent="1">
          <mxGeometry x="264" y="650" width="120" height="60" as="geometry" />
        </mxCell>
        <mxCell id="5xigFDGkHEmPPeXIPXzV-9" value="&lt;font style=&quot;font-size: 48px;&quot;&gt;y&lt;/font&gt;" style="ellipse;whiteSpace=wrap;html=1;aspect=fixed;" vertex="1" parent="1">
          <mxGeometry x="284" y="737" width="80" height="80" as="geometry" />
        </mxCell>
        <mxCell id="5xigFDGkHEmPPeXIPXzV-24" style="edgeStyle=orthogonalEdgeStyle;rounded=0;orthogonalLoop=1;jettySize=auto;html=1;entryX=1;entryY=0.5;entryDx=0;entryDy=0;" edge="1" parent="1" source="5xigFDGkHEmPPeXIPXzV-22" target="5xigFDGkHEmPPeXIPXzV-8">
          <mxGeometry relative="1" as="geometry" />
        </mxCell>
        <mxCell id="5xigFDGkHEmPPeXIPXzV-22" value="" style="rounded=0;whiteSpace=wrap;html=1;strokeColor=#007FFF;" vertex="1" parent="1">
          <mxGeometry x="348" y="540" width="120" height="60" as="geometry" />
        </mxCell>
      </root>
    </mxGraphModel>
  </diagram>
</mxfile>
